<?xml version="1.0" encoding="UTF-8"?>
<svg version="1.1" xmlns="http://www.w3.org/2000/svg" width="226" height="223">
<path d="M0 0 C74.58 0 149.16 0 226 0 C226 73.59 226 147.18 226 223 C151.42 223 76.84 223 0 223 C0 149.41 0 75.82 0 0 Z " fill="#FEFDFD" transform="translate(0,0)"/>
<path d="M0 0 C15.34294868 -0.04682529 30.68589405 -0.08204028 46.02889824 -0.10362434 C53.15372997 -0.11391482 60.27851717 -0.12793228 67.40332031 -0.15087891 C73.61694499 -0.1708813 79.8305374 -0.18373262 86.04419339 -0.18817699 C89.33096966 -0.19077284 92.61763271 -0.19789403 95.90438461 -0.21146011 C99.58328408 -0.22603703 103.26199413 -0.22797532 106.94091797 -0.22705078 C108.55609566 -0.23783661 108.55609566 -0.23783661 110.2039032 -0.24884033 C116.6996331 -0.2312459 122.68606787 0.46222158 129 2 C129 2.33 129 2.66 129 3 C128.33170166 3.03440186 127.66340332 3.06880371 126.97485352 3.10424805 C102.0610072 4.48277004 80.30092005 9.15628127 61 26 C60.34128906 26.51691406 59.68257812 27.03382812 59.00390625 27.56640625 C42.78166164 40.68966456 32.86077197 61.64702687 30 82 C27.88242211 104.06004217 35.37581318 126.06282504 48.82421875 143.48046875 C61.39859655 158.04146279 78.7160164 167.95286798 98 170 C118.16107941 171.25827072 137.97328422 168.57144163 157.05078125 161.953125 C160 161 160 161 163 161 C165.57241012 168.71723035 165.01384137 180.21989983 162.19921875 187.8359375 C155.73777474 199.49600258 139.52467788 204.98624387 127.375 208.5 C119.15101696 210.4256985 110.71598311 210.39151514 102.3125 210.4375 C101.01812012 210.4478125 99.72374023 210.458125 98.39013672 210.46875 C74.51984057 210.25017422 51.59212479 201.10079867 34 185 C32.81470703 183.91912109 32.81470703 183.91912109 31.60546875 182.81640625 C10.77519845 162.90877143 0.62207732 135.26807002 -0.25985718 106.85583496 C-0.38077566 100.01292607 -0.33863045 93.17157643 -0.29296875 86.328125 C-0.2873583 83.82322446 -0.28309508 81.31832057 -0.28010559 78.81341553 C-0.26877078 72.2902482 -0.23940422 65.76728827 -0.20599365 59.24420166 C-0.17504479 52.5599633 -0.16154776 45.87569599 -0.14648437 39.19140625 C-0.11452136 26.1275168 -0.06406096 13.06376955 0 0 Z " fill="#CD3232" transform="translate(0,0)"/>
<path d="M0 0 C1 1 1 1 1.12304783 3.16892338 C1.12212604 4.13404063 1.12120424 5.09915789 1.12025452 6.09352112 C1.12231651 7.74896439 1.12231651 7.74896439 1.12442017 9.43785095 C1.12082489 10.65920242 1.11722961 11.88055389 1.11352539 13.13891602 C1.11367142 14.41677979 1.11381744 15.69464355 1.1139679 17.01123047 C1.11425585 20.52553591 1.1083594 24.0398075 1.10139394 27.55410504 C1.09516012 31.22299356 1.09455658 34.89188277 1.09336853 38.56077576 C1.0902553 45.51290435 1.08204202 52.4650173 1.07201904 59.41713899 C1.05877234 68.80832262 1.05335793 78.1995105 1.04751682 87.5907011 C1.03810212 102.39381247 1.01818316 117.1968908 1 132 C-35.3 132 -71.6 132 -109 132 C-108.67 131.34 -108.34 130.68 -108 130 C-105.91343437 129.48505584 -103.80335739 129.06442323 -101.6875 128.6875 C-86.51578622 125.59468614 -72.21600684 118.83957316 -63 106 C-55.30148135 93.17568194 -54.0886936 79.69972391 -57.5625 65.3125 C-62.9981463 47.23802577 -74.56163069 32.21095763 -90.98681641 22.87011719 C-111.09742908 12.18442141 -132.41475971 8.19520432 -155 7 C-138.51773397 -6.04720085 -114.22766498 -9.78443135 -94 -13 C-93.07711182 -13.17200928 -92.15422363 -13.34401855 -91.20336914 -13.52124023 C-61.40719919 -17.97442896 -27.08353213 -12.94433521 0 0 Z " fill="#FFBE01" transform="translate(225,91)"/>
<path d="M0 0 C0 42.9 0 85.8 0 130 C-33.66 130 -67.32 130 -102 130 C-102 129.67 -102 129.34 -102 129 C-100.23462891 128.88785156 -100.23462891 128.88785156 -98.43359375 128.7734375 C-73.43168396 126.89765187 -44.05468492 120.33634605 -25.7734375 101.734375 C-24 100 -24 100 -22 100 C-21.73703125 99.41992188 -21.4740625 98.83984375 -21.203125 98.2421875 C-19.94188032 95.89168604 -18.49127082 94.1407955 -16.75 92.125 C-7.56340595 80.55527276 -5.1335033 67.66437865 -6.203125 53.265625 C-8.39546846 37.15666654 -18.86304006 25.03701287 -30 14 C-36.96982189 16.83955707 -42.05599656 23.77682011 -45.1328125 30.4609375 C-46.93718843 34.91173146 -48.55356784 39.41963149 -50 44 C-52.33918348 37.45028626 -49.42210855 29.18363274 -46.70703125 23.10546875 C-40.39580352 12.09043053 -32.02971796 6.14378236 -20.3125 1.6875 C-14 0 -14 0 0 0 Z " fill="#FFFDFB" transform="translate(226,93)"/>
<path d="M0 0 C7.36754671 7.03957961 10.35936451 13.21847724 10.75390625 23.4765625 C10.41202783 31.99244317 7.41066817 38.49052841 1.625 44.6875 C0.87089844 45.49960938 0.87089844 45.49960938 0.1015625 46.328125 C-2.45433744 48.59726543 -4.37112299 49.69770422 -7.84887695 49.66235352 C-8.78175537 49.54819092 -9.71463379 49.43402832 -10.67578125 49.31640625 C-17.94162503 48.57363395 -25.13886013 48.54046083 -32.4375 48.5625 C-33.72205078 48.55863281 -35.00660156 48.55476563 -36.33007812 48.55078125 C-43.73545527 48.5583339 -51.01573375 48.84889704 -58.375 49.6875 C-55.07004459 47.13816664 -51.71528902 45.22643677 -48 43.3125 C-40.24040504 39.15029845 -34.0742451 35.505034 -31.375 26.6875 C-30.11209684 19.41491974 -31.34914579 14.10379598 -35.5 8.03125 C-42.59224143 -0.83405178 -51.07830348 -5.12703201 -61.375 -9.3125 C-62.20644531 -9.6528125 -63.03789063 -9.993125 -63.89453125 -10.34375 C-72.30466204 -13.28950509 -81.55816106 -13.54306334 -90.375 -14.3125 C-66.20159359 -27.78620193 -20.00435093 -16.9154438 0 0 Z " fill="#FFBE02" transform="translate(190.375,24.3125)"/>
<path d="M0 0 C32.34 0 64.68 0 98 0 C98 0.33 98 0.66 98 1 C97.00742188 1.17015625 96.01484375 1.3403125 94.9921875 1.515625 C69.17095231 6.05931706 47.82813505 15.43630505 29 34 C28.2678125 34.71929687 27.535625 35.43859375 26.78125 36.1796875 C11.93147244 51.79552502 2.49935957 74.63412613 1 96 C0.67 96 0.34 96 0 96 C0 64.32 0 32.64 0 0 Z " fill="#FEFDFD" transform="translate(0,0)"/>
<path d="M0 0 C3.29158865 -0.05905417 6.58303756 -0.09394375 9.875 -0.125 C10.7928125 -0.14175781 11.710625 -0.15851562 12.65625 -0.17578125 C19.00812606 -0.22051277 24.82610036 0.51148437 31 2 C31 2.33 31 2.66 31 3 C23.08 3.33 15.16 3.66 7 4 C7 3.34 7 2.68 7 2 C4.69 1.67 2.38 1.34 0 1 C0 0.67 0 0.34 0 0 Z " fill="#D45252" transform="translate(98,0)"/>
</svg>
